HIERARCHY
ROOT RootJoint
{
    OFFSET   0.000000   0.000000   0.000000
    CHANNELS 6 Xposition Yposition Zposition Xrotation Yrotation Zrotation
    JOINT pelvis_lowerback
    {
        OFFSET   0.000000   0.093605   0.000000
        CHANNELS 3 Xrotation Yrotation Zrotation
        JOINT lowerback_torso
        {
            OFFSET   0.000000   0.100000   0.000000
            CHANNELS 3 Xrotation Yrotation Zrotation
            JOINT torso_head
            {
                OFFSET   0.000000   0.282350   0.000000
                CHANNELS 3 Xrotation Yrotation Zrotation
                End Site
                {
                    OFFSET   0.000000   0.192650   0.000000
                }
            }
            JOINT rTorso_Clavicle
            {
                OFFSET  -0.001000   0.157500   0.000000
                CHANNELS 3 Xrotation Yrotation Zrotation
                JOINT rShoulder
                {
                    OFFSET  -0.117647   0.000000   0.000000
                    CHANNELS 3 Xrotation Yrotation Zrotation
                    JOINT rElbow
                    {
                        OFFSET  -0.245000   0.000000   0.000000
                        CHANNELS 3 Xrotation Yrotation Zrotation
                        JOINT rWrist
                        {
                            OFFSET  -0.240000   0.000000   0.000000
                            CHANNELS 3 Xrotation Yrotation Zrotation
                            End Site
                            {
                                OFFSET  -0.116353  -0.002500   0.000000
                            }
                        }
                    }
                }
            }
            JOINT lTorso_Clavicle
            {
                OFFSET   0.001000   0.157500   0.000000
                CHANNELS 3 Xrotation Yrotation Zrotation
                JOINT lShoulder
                {
                    OFFSET   0.117647   0.000000   0.000000
                    CHANNELS 3 Xrotation Yrotation Zrotation
                    JOINT lElbow
                    {
                        OFFSET   0.245000   0.000000   0.000000
                        CHANNELS 3 Xrotation Yrotation Zrotation
                        JOINT lWrist
                        {
                            OFFSET   0.240000   0.000000   0.000000
                            CHANNELS 3 Xrotation Yrotation Zrotation
                            End Site
                            {
                                OFFSET   0.116353  -0.002500   0.000000
                            }
                        }
                    }
                }
            }
        }
    }
    JOINT rHip
    {
        OFFSET  -0.100000  -0.051395   0.000000
        CHANNELS 3 Xrotation Yrotation Zrotation
        JOINT rKnee
        {
            OFFSET   0.000000  -0.410000   0.000000
            CHANNELS 3 Xrotation Yrotation Zrotation
            JOINT rAnkle
            {
                OFFSET   0.000000  -0.390000   0.000000
                CHANNELS 3 Xrotation Yrotation Zrotation
                JOINT rToeJoint
                {
                    OFFSET   0.000000  -0.050000   0.130000
                    CHANNELS 3 Xrotation Yrotation Zrotation
                    End Site
                    {
                        OFFSET  -0.010000   0.002000   0.060000
                    }
                }
            }
        }
    }
    JOINT lHip
    {
        OFFSET   0.100000  -0.051395   0.000000
        CHANNELS 3 Xrotation Yrotation Zrotation
        JOINT lKnee
        {
            OFFSET   0.000000  -0.410000   0.000000
            CHANNELS 3 Xrotation Yrotation Zrotation
            JOINT lAnkle
            {
                OFFSET   0.000000  -0.390000   0.000000
                CHANNELS 3 Xrotation Yrotation Zrotation
                JOINT lToeJoint
                {
                    OFFSET   0.000000  -0.050000   0.130000
                    CHANNELS 3 Xrotation Yrotation Zrotation
                    End Site
                    {
                        OFFSET   0.010000   0.002000   0.060000
                    }
                }
            }
        }
    }
}
MOTION
Frames: 8
Frame Time:   0.008333
 -1.406271   0.910488   5.236757 -150.830648  67.376417 156.249738   5.635128  -1.409598   0.149168   5.209087  -0.654155  -0.393269   1.983497  -1.141359   0.968026   3.584156  -2.575522   3.021633   8.759693   6.656784  50.057277  -0.002268  49.657386   0.000051   2.238657   3.868950  -6.639262   4.980624   0.268902  -4.217360   5.832975  -5.196267 -53.941683   0.004291 -33.309451   0.005488   1.075073  -2.635235   7.416922  -6.610377  -7.910928  -8.999860  16.220571   0.000866  -0.000902  -0.650617 -15.034869   4.780458  -0.314217  -0.000033   0.000009  16.422906   0.859834   2.241333  31.436132  -0.003105   0.023105  -4.712755  -0.065298  -0.356710 -11.277655   0.000837   0.003239
 -1.400701   0.911661   5.237401 -151.118119  67.244518 156.583617   5.583189  -1.299737   0.211785   5.261494  -0.727903  -0.325194   1.965667  -1.261904   0.993607   3.695910  -2.668811   3.030139   8.702803   6.407164  49.694769  -0.003042  50.234177   0.000150   2.240751   3.756436  -6.793551   5.026122   0.256076  -4.207793   5.823445  -5.156185 -53.957971   0.003819 -33.093275   0.004776   1.073897  -2.418694   7.407765  -6.101695  -8.091365  -8.869757  15.860227   0.001061  -0.001030  -0.615228 -15.069605   4.541919  -0.236622   0.000101   0.000036  15.548220   1.029086   2.352668  33.376315   0.000010   0.025078  -4.638650   0.111310  -0.373193 -10.278674   0.000508   0.007669
 -1.395349   0.912884   5.238022 -151.451454  67.074763 156.987466   5.550897  -1.190141   0.248011   5.312112  -0.805158  -0.273621   1.954096  -1.374593   1.017438   3.791451  -2.753526   3.018319   8.640230   6.178904  49.349233  -0.003490  50.788560  -0.000170   2.253339   3.733831  -6.958595   5.041230   0.225277  -4.177564   5.789370  -5.134798 -53.964918   0.003413 -32.908908   0.004189   1.083428  -2.294526   7.413273  -5.576099  -8.261953  -8.762979  15.455706   0.001224  -0.001342  -0.622254 -15.101925   4.304252  -0.175754   0.000176   0.000083  14.646939   1.204961   2.435265  35.169500   0.003230   0.026624  -4.575445   0.280825  -0.388030  -9.399657   0.000710   0.010913
 -1.390136   0.914088   5.238609 -151.789344  66.890654 157.409768   5.528915  -1.081833   0.268438   5.360149  -0.876183  -0.236364   1.946699  -1.478965   1.038057   3.872749  -2.826394   2.991847   8.574119   5.969342  49.018650  -0.003723  51.310773  -0.000636   2.269943   3.746096  -7.128214   5.042552   0.187660  -4.135884   5.746140  -5.120916 -53.963718   0.003062 -32.743596   0.003703   1.097963  -2.220803   7.435221  -5.049478  -8.419759  -8.669824  15.043197   0.001340  -0.001685  -0.649798 -15.131064   4.073311  -0.123517   0.000218   0.000126  13.751063   1.374455   2.493710  36.821189   0.006013   0.027207  -4.517944   0.439031  -0.402108  -8.599137   0.001150   0.013014
 -1.385016   0.915233   5.239160 -152.112228  66.702258 157.822890   5.512604  -0.974534   0.279454   5.405280  -0.938617  -0.209177   1.941660  -1.575917   1.056117   3.942439  -2.889503   2.955680   8.506271   5.776195  48.703244  -0.003810  51.800893  -0.001102   2.288288   3.773959  -7.300821   5.038317   0.149407  -4.088223   5.700989  -5.109922 -53.957193   0.002756 -32.592228   0.003298   1.114378  -2.171097   7.468702  -4.528567  -8.567369  -8.582901  14.641608   0.001411  -0.001972  -0.686847 -15.157424   3.852501  -0.077494   0.000240   0.000158  12.876686   1.535480   2.536026  38.345911   0.008197   0.026929  -4.465321   0.586514  -0.415435  -7.868529   0.001651   0.014152
 -1.379959   0.916301   5.239672 -152.411181  66.515038 158.212985   5.498938  -0.868232   0.284634   5.447318  -0.992079  -0.189016   1.937977  -1.666116   1.072201   4.002843  -2.944762   2.913943   8.438178   5.597785  48.403743  -0.003794  52.260087  -0.001499   2.307412   3.810037  -7.474440   5.032716   0.113491  -4.038269   5.657462  -5.099674 -53.947550   0.002484 -32.451969   0.002956   1.131059  -2.131834   7.509205  -4.016845  -8.706690  -8.497863  14.260962   0.001441  -0.002169  -0.727173 -15.181392   3.643503  -0.036350   0.000247   0.000179  12.032732   1.687484   2.567754  39.756300   0.009771   0.025994  -4.416952   0.723999  -0.428021  -7.201100   0.002113   0.014544
 -1.374949   0.917284   5.240143 -152.683052  66.332346 158.574024   5.485863  -0.763185   0.286041   5.486032  -1.036987  -0.173899   1.935041  -1.750102   1.086678   4.055798  -2.993557   2.869809   8.370935   5.432840  48.120712  -0.003701  52.689844  -0.001803   2.326802   3.850704  -7.646699   5.027806   0.081180  -3.988506   5.617186  -5.089249 -53.936404   0.002240 -32.321120   0.002666   1.147204  -2.096240   7.553342  -3.516286  -8.838915  -8.412351  13.906157   0.001439  -0.002271  -0.767277 -15.203259   3.446915   0.000798   0.000245   0.000190  11.224040   1.830418   2.592367  41.062819   0.010791   0.024604  -4.372354   0.852177  -0.439883  -6.591004   0.002490   0.014388
 -1.370126   0.918280   5.240512 -152.899082  66.230516 158.941635   5.538420  -0.616091   0.238658   5.454585  -1.083909  -0.187558   1.901740  -1.857888   1.119522   4.073818  -3.034666   2.842786   8.254221   5.286625  47.834895  -0.004328  53.319091  -0.001794   2.328710   3.712925  -7.800930   4.995920   0.136427  -3.949250   5.547739  -5.093919 -53.913262   0.001864 -32.288561   0.002227   1.175075  -1.974544   7.598784  -3.057338  -8.911266  -8.398833  13.530941   0.001425  -0.002276  -0.701659 -15.111145   3.310822   0.167955   0.000359   0.000473  10.558953   2.007449   2.459998  41.683820   0.010232   0.020995  -4.938434   1.223510  -0.322203  -6.175632   0.002269   0.013882
